# xmcd
# 
# Track frame offsets:
#     150
#     21302
#     39487
#     58460
#     79362
#     99567
#     118610
#     137873
#     157557
#     178735
#     197980
#     216549
#     245580
# 
# Disc length: 4194
# 
# Revision: 4
# Processed by: cddbd v1.5.2PL0 Copyright (c) Steve Scherf et al.
# Submitted via: fre:ac v1.0.17
# 
DISCID=c210600d
DTITLE=Eros Ramazzotti - Stilelibero
DYEAR=2000
DGENRE=Pop
TTITLE0=L' Ombra Del Gigante
TTITLE1=Fuoco nel Fuoco
TTITLE2=Lo Spirito degli Alberi
TTITLE3=Un Angelo Non E'
TTITLE4=L' Aquila e il Condor
TTITLE5=Piu' Che Puoi (ft. Cher)
TTITLE6=Il Mio Amore per Te
TTITLE7=E Ancor Mi Chiedo
TTITLE8=Improvvisa Luce Ad Est
TTITLE9=Nell' Azzurrità
TTITLE10=Amica Donna Mia
TTITLE11=Per Me Per Sempre
TTITLE12=Pista Multimedia Interactiva
EXTD=YEAR: 2000
EXTT0=
EXTT1=
EXTT2=
EXTT3=
EXTT4=
EXTT5=
EXTT6=
EXTT7=
EXTT8=
EXTT9=
EXTT10=
EXTT11=
EXTT12=
PLAYORDER=
